<svg width="20" height="20" viewBox="0 0 20 20" fill="none" xmlns="http://www.w3.org/2000/svg">
    <g clip-path="url(#clip0_709_4178)">
        <path
            d="M7.1377 7.01721L9.2611 2.94779C9.33157 2.81276 9.43769 2.69963 9.56794 2.62069C9.69819 2.54174 9.84758 2.5 9.99989 2.5C10.1522 2.5 10.3016 2.54174 10.4318 2.62069C10.5621 2.69963 10.6682 2.81276 10.7387 2.94779L12.8621 7.01721"
            stroke="#4B4F58" stroke-width="1.5" stroke-linecap="round" stroke-linejoin="round" />
        <path
            d="M7.13793 7.01709L3.19596 7.68072C3.04576 7.706 2.90537 7.77197 2.79003 7.87145C2.67469 7.97093 2.58883 8.10012 2.54176 8.24498C2.4947 8.38983 2.48823 8.54482 2.52307 8.69309C2.55791 8.84137 2.63272 8.97726 2.73937 9.086L5.6727 12.0767"
            stroke="#4B4F58" stroke-width="1.5" stroke-linecap="round" stroke-linejoin="round" />
        <path
            d="M12.8623 7.01709L16.8043 7.68072C16.9545 7.706 17.0949 7.77197 17.2102 7.87145C17.3255 7.97093 17.4114 8.10012 17.4585 8.24498C17.5055 8.38983 17.512 8.54482 17.4772 8.69309C17.4423 8.84137 17.3675 8.97726 17.2609 9.086L14.3275 12.0767"
            stroke="#4B4F58" stroke-width="1.5" stroke-linecap="round" stroke-linejoin="round" />
        <path
            d="M5.67252 12.0769L5.00952 16.5427C4.98716 16.6934 5.00651 16.8473 5.06549 16.9877C5.12446 17.1282 5.22079 17.2498 5.34402 17.3393C5.46725 17.4288 5.61265 17.4828 5.76443 17.4955C5.91621 17.5082 6.06857 17.479 6.20494 17.4112L10 15.5237"
            stroke="#4B4F58" stroke-width="1.5" stroke-linecap="round" stroke-linejoin="round" />
        <path
            d="M14.3275 12.0769L14.9905 16.5427C15.0129 16.6934 14.9935 16.8473 14.9345 16.9877C14.8756 17.1282 14.7792 17.2498 14.656 17.3393C14.5328 17.4288 14.3874 17.4828 14.2356 17.4955C14.0838 17.5082 13.9314 17.479 13.7951 17.4112L10 15.5237"
            stroke="#4B4F58" stroke-width="1.5" stroke-linecap="round" stroke-linejoin="round" />
    </g>
    <defs>
        <clipPath id="clip0_709_4178">
            <rect width="20" height="20" fill="white" />
        </clipPath>
    </defs>
</svg>