<svg width="24" height="28" viewBox="0 0 24 28" fill="none" xmlns="http://www.w3.org/2000/svg">
<path d="M19.5867 15.1855C19.6003 14.1583 19.8797 13.1511 20.3991 12.2576C20.9185 11.3642 21.661 10.6135 22.5574 10.0755C21.9879 9.2815 21.2367 8.62806 20.3633 8.1671C19.4899 7.70613 18.5185 7.45033 17.5262 7.42002C15.4093 7.20309 13.3571 8.65668 12.2784 8.65668C11.1788 8.65668 9.51801 7.44156 7.72956 7.47748C6.57275 7.51397 5.44535 7.84239 4.4572 8.43074C3.46905 9.01909 2.65385 9.84732 2.09104 10.8347C-0.346888 14.9556 1.47159 21.0121 3.80696 24.3431C4.9754 25.9743 6.34097 27.7963 8.1278 27.7317C9.87632 27.6609 10.5294 26.6431 12.64 26.6431C14.731 26.6431 15.3437 27.7317 17.1667 27.6906C19.043 27.6609 20.2251 26.0522 21.3526 24.4056C22.1921 23.2434 22.8381 21.9589 23.2667 20.5996C22.1766 20.1495 21.2464 19.3961 20.592 18.4333C19.9376 17.4705 19.588 16.341 19.5867 15.1855Z" fill="white"/>
<path d="M16.1432 5.22931C17.1662 4.03034 17.6702 2.48926 17.5482 0.93335C15.9853 1.09361 14.5416 1.82288 13.5047 2.97585C12.9978 3.53911 12.6096 4.19438 12.3622 4.90422C12.1148 5.61406 12.0131 6.36454 12.063 7.11276C12.8447 7.12062 13.6181 6.95519 14.3249 6.62895C15.0316 6.3027 15.6534 5.82414 16.1432 5.22931Z" fill="white"/>
</svg>
