<svg width="134" height="45" viewBox="0 0 134 45" fill="none" xmlns="http://www.w3.org/2000/svg">
<rect x="0.558333" y="0.558333" width="132.883" height="43.55" rx="6.14167" fill="black"/>
<rect x="0.558333" y="0.558333" width="132.883" height="43.55" rx="6.14167" stroke="#A6A6A6" stroke-width="1.11667"/>
<path d="M27.5867 23.1855C27.6003 22.1583 27.8797 21.1511 28.3991 20.2576C28.9185 19.3642 29.661 18.6135 30.5574 18.0755C29.9879 17.2815 29.2367 16.6281 28.3633 16.1671C27.4899 15.7061 26.5185 15.4503 25.5262 15.42C23.4093 15.2031 21.3571 16.6567 20.2784 16.6567C19.1788 16.6567 17.518 15.4416 15.7296 15.4775C14.5728 15.514 13.4453 15.8424 12.4572 16.4307C11.469 17.0191 10.6538 17.8473 10.091 18.8347C7.65311 22.9556 9.47159 29.0121 11.807 32.3431C12.9754 33.9743 14.341 35.7963 16.1278 35.7317C17.8763 35.6609 18.5294 34.6431 20.64 34.6431C22.731 34.6431 23.3437 35.7317 25.1667 35.6906C27.043 35.6609 28.2251 34.0522 29.3526 32.4056C30.1921 31.2434 30.8381 29.9589 31.2667 28.5996C30.1766 28.1495 29.2464 27.3961 28.592 26.4333C27.9376 25.4705 27.588 24.341 27.5867 23.1855Z" fill="white"/>
<path d="M24.1432 13.2293C25.1662 12.0303 25.6702 10.4893 25.5482 8.93335C23.9853 9.09361 22.5416 9.82288 21.5047 10.9759C20.9978 11.5391 20.6096 12.1944 20.3622 12.9042C20.1148 13.6141 20.0131 14.3645 20.063 15.1128C20.8447 15.1206 21.6181 14.9552 22.3249 14.6289C23.0316 14.3027 23.6534 13.8241 24.1432 13.2293Z" fill="white"/>
<path d="M41.0833 10.8016H43.3946C45.3919 10.8016 46.3635 11.9892 46.3635 14.1435C46.3635 16.2977 45.382 17.5 43.3946 17.5H41.0833V10.8016ZM42.1973 11.7389V16.5627H43.2719C44.5969 16.5627 45.2201 15.7628 45.2201 14.1582C45.2201 12.5437 44.592 11.7389 43.2719 11.7389H42.1973ZM49.8869 12.2247C51.2413 12.2247 52.1884 13.1031 52.1884 14.5606V15.2329C52.1884 16.7394 51.2413 17.5883 49.8869 17.5883C48.5129 17.5883 47.5756 16.7492 47.5756 15.2378V14.5655C47.5756 13.1473 48.5276 12.2247 49.8869 12.2247ZM49.8918 13.1031C49.1164 13.1031 48.6748 13.7509 48.6748 14.6195V15.1985C48.6748 16.0671 49.087 16.7099 49.8918 16.7099C50.6868 16.7099 51.0941 16.072 51.0941 15.1985V14.6195C51.0941 13.7509 50.6671 13.1031 49.8918 13.1031ZM60.1871 12.3131L58.8229 17.5H57.7139L56.6294 13.6724H56.6L55.5351 17.5H54.4212L52.9981 12.3131H54.1709L55.0051 16.2683H55.0542L56.0994 12.3131H57.125L58.1997 16.2683H58.2488L59.0977 12.3131H60.1871ZM61.2667 17.5V12.3131H62.3365V13.2454H62.3905C62.523 12.8381 62.9008 12.2345 63.951 12.2345C64.9962 12.2345 65.698 12.8136 65.698 13.9962V17.5H64.6086V14.3152C64.6086 13.5251 64.1964 13.162 63.5829 13.162C62.7782 13.162 62.3561 13.7803 62.3561 14.6195V17.5H61.2667ZM67.3468 17.5V10.4483H68.4362V17.5H67.3468ZM72.1755 12.2247C73.5299 12.2247 74.477 13.1031 74.477 14.5606V15.2329C74.477 16.7394 73.5299 17.5883 72.1755 17.5883C70.8015 17.5883 69.8642 16.7492 69.8642 15.2378V14.5655C69.8642 13.1473 70.8162 12.2247 72.1755 12.2247ZM72.1804 13.1031C71.4051 13.1031 70.9634 13.7509 70.9634 14.6195V15.1985C70.9634 16.0671 71.3756 16.7099 72.1804 16.7099C72.9754 16.7099 73.3827 16.072 73.3827 15.1985V14.6195C73.3827 13.7509 72.9558 13.1031 72.1804 13.1031ZM77.2986 17.5785C76.2927 17.5785 75.6007 16.9602 75.6007 15.9935C75.6007 15.0758 76.2387 14.4575 77.436 14.4575H78.7463V13.9717C78.7463 13.3779 78.3684 13.0982 77.7697 13.0982C77.1809 13.0982 76.9159 13.3436 76.8325 13.6871H75.797C75.8608 12.8185 76.5135 12.2345 77.8041 12.2345C78.9131 12.2345 79.8308 12.6958 79.8308 13.9864V17.5H78.7954V16.8277H78.7463C78.5156 17.2252 78.0642 17.5785 77.2986 17.5785ZM77.6372 16.7345C78.2556 16.7345 78.7463 16.3125 78.7463 15.7481V15.1887H77.6078C76.9748 15.1887 76.6951 15.5077 76.6951 15.9395C76.6951 16.4793 77.1465 16.7345 77.6372 16.7345ZM83.1873 12.2444C83.9185 12.2444 84.4779 12.5682 84.6791 13.0933H84.7331V10.4483H85.8225V17.5H84.7625V16.6707H84.7086C84.5515 17.1958 83.9283 17.5687 83.1726 17.5687C81.9801 17.5687 81.2048 16.7198 81.2048 15.3506V14.4624C81.2048 13.0933 81.9949 12.2444 83.1873 12.2444ZM83.4916 13.1375C82.7653 13.1375 82.3138 13.6773 82.3138 14.6195V15.1887C82.3138 16.1358 82.7702 16.6756 83.5161 16.6756C84.2522 16.6756 84.7331 16.1407 84.7331 15.2574V14.4722C84.7331 13.6724 84.208 13.1375 83.4916 13.1375ZM91.8044 12.2247C93.1588 12.2247 94.1059 13.1031 94.1059 14.5606V15.2329C94.1059 16.7394 93.1588 17.5883 91.8044 17.5883C90.4304 17.5883 89.4931 16.7492 89.4931 15.2378V14.5655C89.4931 13.1473 90.4451 12.2247 91.8044 12.2247ZM91.8093 13.1031C91.034 13.1031 90.5923 13.7509 90.5923 14.6195V15.1985C90.5923 16.0671 91.0045 16.7099 91.8093 16.7099C92.6043 16.7099 93.0116 16.072 93.0116 15.1985V14.6195C93.0116 13.7509 92.5847 13.1031 91.8093 13.1031ZM95.5094 17.5V12.3131H96.5791V13.2454H96.6331C96.7656 12.8381 97.1435 12.2345 98.1936 12.2345C99.2389 12.2345 99.9406 12.8136 99.9406 13.9962V17.5H98.8512V14.3152C98.8512 13.5251 98.439 13.162 97.8256 13.162C97.0208 13.162 96.5988 13.7803 96.5988 14.6195V17.5H95.5094ZM104.156 12.3474V11.0519H105.221V12.3474H106.384V13.2013H105.221V15.9542C105.221 16.5186 105.432 16.6756 106.016 16.6756C106.163 16.6756 106.359 16.6658 106.443 16.656V17.4902C106.354 17.5049 105.991 17.5344 105.746 17.5344C104.485 17.5344 104.141 17.0829 104.141 16.0426V13.2013H103.351V12.3474H104.156ZM107.758 17.5V10.4483H108.842V13.2454H108.896C109.009 12.8774 109.431 12.2345 110.471 12.2345C111.482 12.2345 112.204 12.8185 112.204 14.0011V17.5H111.119V14.3201C111.119 13.5301 110.683 13.162 110.064 13.162C109.284 13.162 108.842 13.7754 108.842 14.6195V17.5H107.758ZM115.86 17.5883C114.446 17.5883 113.568 16.7198 113.568 15.2574V14.5557C113.568 13.0835 114.53 12.2247 115.796 12.2247C117.096 12.2247 118.014 13.1277 118.014 14.5557V15.1642H114.648V15.4193C114.648 16.1652 115.089 16.7148 115.855 16.7148C116.424 16.7148 116.817 16.4449 116.89 16.1211H117.955C117.891 16.7198 117.258 17.5883 115.86 17.5883ZM114.648 14.4526H116.949V14.3839C116.949 13.6037 116.493 13.0835 115.801 13.0835C115.109 13.0835 114.648 13.6037 114.648 14.3839V14.4526Z" fill="white"/>
<path d="M42.6634 34.5H40.3963L45.0091 21.1033H47.502L52.1049 34.5H49.7495L48.5619 30.7901H43.8608L42.6634 34.5ZM46.2653 23.4195H46.177L44.3613 29.0824H48.0614L46.2653 23.4195ZM58.3619 34.6472C57.0173 34.6472 55.9966 34.0093 55.447 33.0573H55.3685V37.9449H53.1897V24.1261H55.3096V25.6474H55.3881C55.9574 24.6561 57.0173 23.9887 58.411 23.9887C60.737 23.9887 62.3956 25.7455 62.3956 28.8469V29.7694C62.3956 32.8512 60.7566 34.6472 58.3619 34.6472ZM57.8614 32.8512C59.2452 32.8512 60.1874 31.7421 60.1874 29.6517V28.9254C60.1874 26.9134 59.3041 25.7651 57.8221 25.7651C56.3009 25.7651 55.3489 27.0018 55.3489 28.9156V29.6517C55.3489 31.6146 56.3107 32.8512 57.8614 32.8512ZM69.4377 34.6472C68.0932 34.6472 67.0725 34.0093 66.5229 33.0573H66.4443V37.9449H64.2655V24.1261H66.3855V25.6474H66.464C67.0332 24.6561 68.0932 23.9887 69.4868 23.9887C71.8128 23.9887 73.4715 25.7455 73.4715 28.8469V29.7694C73.4715 32.8512 71.8325 34.6472 69.4377 34.6472ZM68.9372 32.8512C70.321 32.8512 71.2632 31.7421 71.2632 29.6517V28.9254C71.2632 26.9134 70.3799 25.7651 68.898 25.7651C67.3767 25.7651 66.4247 27.0018 66.4247 28.9156V29.6517C66.4247 31.6146 67.3865 32.8512 68.9372 32.8512ZM77.9866 30.7803H80.1654C80.2636 31.9384 81.2843 32.9297 83.1785 32.9297C84.9156 32.9297 85.9461 32.1151 85.9461 30.849C85.9461 29.8283 85.2591 29.2787 83.8262 28.9352L81.6278 28.3856C79.9004 27.9832 78.3497 26.9527 78.3497 24.7739C78.3497 22.2123 80.5874 20.8088 83.1883 20.8088C85.7891 20.8088 87.9581 22.2123 88.0072 24.715H85.8676C85.7695 23.5765 84.896 22.6343 83.1588 22.6343C81.6278 22.6343 80.5874 23.3606 80.5874 24.607C80.5874 25.4805 81.1959 26.1086 82.4424 26.3933L84.631 26.9331C86.643 27.4238 88.174 28.3758 88.174 30.6527C88.174 33.283 86.0443 34.765 83.0116 34.765C79.2821 34.765 78.0357 32.5862 77.9866 30.7803ZM90.8291 24.1261V21.6038H92.9686V24.1261H94.9904V25.8731H92.9686V31.4084C92.9686 32.5371 93.3906 32.8512 94.5586 32.8512C94.745 32.8512 94.9217 32.8512 95.0493 32.8315V34.5C94.8726 34.5294 94.4604 34.5687 94.0188 34.5687C91.4965 34.5687 90.7996 33.6658 90.7996 31.5851V25.8731H89.3667V24.1261H90.8291ZM100.874 23.9495C103.858 23.9495 105.477 26.0498 105.477 28.8763V29.7105C105.477 32.6353 103.868 34.6767 100.874 34.6767C97.881 34.6767 96.2518 32.6353 96.2518 29.7105V28.8763C96.2518 26.0596 97.8908 23.9495 100.874 23.9495ZM100.874 25.6964C99.255 25.6964 98.4502 27.0214 98.4502 28.9058V29.7007C98.4502 31.5557 99.2452 32.9199 100.874 32.9199C102.504 32.9199 103.289 31.5655 103.289 29.7007V28.9058C103.289 27.0116 102.494 25.6964 100.874 25.6964ZM107.318 34.5V24.1261H109.497V25.4903H109.575C109.84 24.8426 110.615 23.9789 112.058 23.9789C112.343 23.9789 112.588 23.9985 112.794 24.0378V25.9614C112.608 25.9124 112.225 25.8829 111.862 25.8829C110.115 25.8829 109.526 26.9625 109.526 28.3562V34.5H107.318ZM118.08 34.6767C115.302 34.6767 113.536 32.8414 113.536 29.7694V28.7193C113.536 25.824 115.263 23.9495 117.991 23.9495C120.759 23.9495 122.427 25.8927 122.427 28.8174V29.8087H115.685V30.0541C115.685 31.801 116.627 32.9591 118.109 32.9591C119.218 32.9591 119.974 32.4095 120.239 31.5164H122.31C121.996 33.1947 120.641 34.6767 118.08 34.6767ZM115.685 28.2875H120.298V28.2678C120.298 26.7957 119.385 25.6375 118.001 25.6375C116.598 25.6375 115.685 26.7957 115.685 28.2678V28.2875Z" fill="white"/>
</svg>
