<svg width="21" height="20" viewBox="0 0 21 20" fill="none" xmlns="http://www.w3.org/2000/svg">
<g clip-path="url(#clip0_365_59888)">
<path d="M7.47119 7.01721L9.5946 2.94779C9.66506 2.81276 9.77119 2.69963 9.90144 2.62069C10.0317 2.54174 10.1811 2.5 10.3334 2.5C10.4857 2.5 10.6351 2.54174 10.7653 2.62069C10.8956 2.69963 11.0017 2.81276 11.0722 2.94779L13.1956 7.01721" stroke="#B2B6BD" stroke-width="1.5" stroke-linecap="round" stroke-linejoin="round"/>
<path d="M7.47143 7.01709L3.52946 7.68072C3.37926 7.706 3.23886 7.77197 3.12353 7.87145C3.00819 7.97093 2.92232 8.10012 2.87526 8.24498C2.82819 8.38983 2.82173 8.54482 2.85656 8.69309C2.8914 8.84137 2.96621 8.97726 3.07286 9.086L6.0062 12.0767" stroke="#B2B6BD" stroke-width="1.5" stroke-linecap="round" stroke-linejoin="round"/>
<path d="M13.1958 7.01709L17.1378 7.68072C17.288 7.706 17.4284 7.77197 17.5437 7.87145C17.659 7.97093 17.7449 8.10012 17.792 8.24498C17.839 8.38983 17.8455 8.54482 17.8107 8.69309C17.7758 8.84137 17.701 8.97726 17.5944 9.086L14.661 12.0767" stroke="#B2B6BD" stroke-width="1.5" stroke-linecap="round" stroke-linejoin="round"/>
<path d="M6.00601 12.0769L5.34301 16.5427C5.32065 16.6934 5.34001 16.8473 5.39898 16.9877C5.45796 17.1282 5.55429 17.2498 5.67752 17.3393C5.80074 17.4288 5.94614 17.4828 6.09793 17.4955C6.24971 17.5082 6.40207 17.479 6.53844 17.4112L10.3335 15.5237" stroke="#B2B6BD" stroke-width="1.5" stroke-linecap="round" stroke-linejoin="round"/>
<path d="M14.661 12.0769L15.324 16.5427C15.3464 16.6934 15.327 16.8473 15.268 16.9877C15.2091 17.1282 15.1127 17.2498 14.9895 17.3393C14.8663 17.4288 14.7209 17.4828 14.5691 17.4955C14.4173 17.5082 14.2649 17.479 14.1286 17.4112L10.3335 15.5237" stroke="#B2B6BD" stroke-width="1.5" stroke-linecap="round" stroke-linejoin="round"/>
</g>
<defs>
<clipPath id="clip0_365_59888">
<rect width="20" height="20" fill="white" transform="translate(0.333496)"/>
</clipPath>
</defs>
</svg>
