<svg width="21" height="20" viewBox="0 0 21 20" fill="none" xmlns="http://www.w3.org/2000/svg">
<path fill-rule="evenodd" clip-rule="evenodd" d="M8.41938 3.41262L3.27438 6.27095C2.19272 6.87178 2.19272 8.42678 3.27438 9.02762L8.41938 11.886C9.60938 12.5468 11.0569 12.5468 12.2477 11.886L17.3927 9.02762C18.4744 8.42678 18.4744 6.87178 17.3927 6.27095L12.2477 3.41262C11.0569 2.75178 9.61022 2.75178 8.41938 3.41262Z" stroke="#B2B6BD" stroke-width="1.419" stroke-linecap="round" stroke-linejoin="round"/>
<path d="M5.32617 10.1667V13.4367C5.32617 14.2276 5.72201 14.9651 6.37951 15.4026L7.71867 16.2934C9.30284 17.3467 11.3645 17.3467 12.9478 16.2934L14.287 15.4026C14.9453 14.9651 15.3403 14.2267 15.3403 13.4367V10.1667" stroke="#B2B6BD" stroke-width="1.4167" stroke-linecap="round" stroke-linejoin="round"/>
</svg>
