<svg width="18" height="19" viewBox="0 0 18 19" fill="none" xmlns="http://www.w3.org/2000/svg">
    <path fill-rule="evenodd" clip-rule="evenodd"
        d="M0.981305 10.2086C0.839565 9.96179 0.839565 9.66237 0.981305 9.41554C2.68941 6.44763 5.8447 3.875 9 3.875C12.1553 3.875 15.3106 6.44763 17.0187 9.41638C17.1604 9.66321 17.1604 9.96263 17.0187 10.2095C15.3106 13.1774 12.1553 15.75 9 15.75C5.8447 15.75 2.68941 13.1774 0.981305 10.2086Z"
        stroke="black" stroke-width="1.25" stroke-linecap="round" stroke-linejoin="round" />
    <path
        d="M10.7678 7.73223C11.7441 8.70854 11.7441 10.2915 10.7678 11.2678C9.79146 12.2441 8.20854 12.2441 7.23223 11.2678C6.25592 10.2915 6.25592 8.70854 7.23223 7.73223C8.20854 6.75592 9.79146 6.75592 10.7678 7.73223"
        stroke="black" stroke-width="1.1905" stroke-linecap="round" stroke-linejoin="round" />
</svg>