<svg width="18" height="19" viewBox="0 0 18 19" fill="none" xmlns="http://www.w3.org/2000/svg">
    <path d="M17.0226 9.80432C15.3802 12.8753 12.3463 15.5372 9.31238 15.5372" stroke="black" stroke-width="1.25"
        stroke-linecap="round" stroke-linejoin="round" />
    <path
        d="M15.4574 6.69141C16.0572 7.40144 16.5902 8.17554 17.0225 8.98386C17.1588 9.23926 17.1588 9.54908 17.0225 9.80448"
        stroke="black" stroke-width="1.25" stroke-linecap="round" stroke-linejoin="round" />
    <path d="M3.2359 15.5373L15.3889 3.25" stroke="black" stroke-width="1.25" stroke-linecap="round"
        stroke-linejoin="round" />
    <path
        d="M7.37922 11.3482C6.3115 10.2687 6.3115 8.51771 7.37922 7.43819C8.44695 6.35866 10.1787 6.35866 11.2465 7.43819"
        stroke="black" stroke-width="1.25" stroke-linecap="round" stroke-linejoin="round" />
    <path
        d="M13.6909 4.96671C12.348 3.91615 10.8298 3.25 9.3124 3.25C6.2785 3.25 3.2446 5.91196 1.60222 8.98378C1.46593 9.23918 1.46593 9.549 1.60222 9.8044C2.42341 11.3394 3.59183 12.7718 4.93386 13.8215"
        stroke="black" stroke-width="1.25" stroke-linecap="round" stroke-linejoin="round" />
    <path d="M9.83667 15.5373C9.135 15.5373 8.4325 15.3873 7.75 15.1202" stroke="black" stroke-width="1.25"
        stroke-linecap="round" stroke-linejoin="round" />
</svg>