<svg width="21" height="20" viewBox="0 0 21 20" fill="none" xmlns="http://www.w3.org/2000/svg">
<g clip-path="url(#clip0_365_59883)">
<path d="M10.3333 17.5C12.1743 17.5 13.6667 14.1421 13.6667 10C13.6667 5.85786 12.1743 2.5 10.3333 2.5C8.49238 2.5 7 5.85786 7 10C7 14.1421 8.49238 17.5 10.3333 17.5Z" stroke="#B2B6BD" stroke-width="1.5" stroke-linecap="round" stroke-linejoin="round"/>
<path d="M17.4167 7.5H3.25" stroke="#B2B6BD" stroke-width="1.5" stroke-linecap="round" stroke-linejoin="round"/>
<path d="M11.1668 2.5H9.50016C5.81826 2.5 2.8335 5.48477 2.8335 9.16667V10.8333C2.8335 14.5152 5.81826 17.5 9.50016 17.5H11.1668C14.8487 17.5 17.8335 14.5152 17.8335 10.8333V9.16667C17.8335 5.48477 14.8487 2.5 11.1668 2.5Z" stroke="#B2B6BD" stroke-width="1.5" stroke-linecap="round" stroke-linejoin="round"/>
<path d="M17.4167 12.5H3.25" stroke="#B2B6BD" stroke-width="1.5" stroke-linecap="round" stroke-linejoin="round"/>
</g>
<defs>
<clipPath id="clip0_365_59883">
<rect width="20" height="20" fill="white" transform="translate(0.333496)"/>
</clipPath>
</defs>
</svg>
