<svg width="24" height="25" viewBox="0 0 24 25" fill="none" xmlns="http://www.w3.org/2000/svg">
<g id="Google">
<path id="Vector" d="M20 12.8446C20 12.1734 19.9455 11.6836 19.8276 11.1757H12.1632V14.2051H16.6621C16.5714 14.958 16.0816 16.0918 14.9932 16.8536L14.9779 16.955L17.4012 18.8324L17.5691 18.8491C19.1111 17.4251 20 15.3298 20 12.8446Z" fill="#4285F4"/>
<path id="Vector_2" d="M12.1633 20.8265C14.3673 20.8265 16.2176 20.1008 17.5692 18.8491L14.9932 16.8536C14.3039 17.3344 13.3787 17.67 12.1633 17.67C10.0046 17.67 8.17236 16.246 7.51924 14.2777L7.42351 14.2858L4.90368 16.236L4.87073 16.3276C6.21312 18.9942 8.9705 20.8265 12.1633 20.8265Z" fill="#34A853"/>
<path id="Vector_3" d="M7.51924 14.2778C7.34691 13.7698 7.24717 13.2256 7.24717 12.6632C7.24717 12.1009 7.34691 11.5567 7.51017 11.0487L7.50561 10.9406L4.95421 8.95911L4.87073 8.99881C4.31746 10.1054 4 11.3481 4 12.6632C4 13.9784 4.31746 15.221 4.87073 16.3276L7.51924 14.2778Z" fill="#FBBC05"/>
<path id="Vector_4" d="M12.1633 7.65644C13.6961 7.65644 14.7301 8.31857 15.3197 8.8719L17.6236 6.62245C16.2086 5.30726 14.3673 4.5 12.1633 4.5C8.97049 4.5 6.21312 6.33219 4.87073 8.99883L7.51017 11.0487C8.17236 9.0805 10.0046 7.65644 12.1633 7.65644Z" fill="#EB4335"/>
</g>
</svg>
