<svg width="20" height="21" viewBox="0 0 20 21" fill="none" xmlns="http://www.w3.org/2000/svg">
<path fill-rule="evenodd" clip-rule="evenodd" d="M6.24667 3.21655H13.7542C15.8225 3.21655 17.5 4.89322 17.5 6.96322V14.4707C17.5 16.5391 15.8233 18.2166 13.7533 18.2166H6.24667C4.1775 18.2166 2.5 16.5399 2.5 14.4699V6.96322C2.5 4.89405 4.17667 3.21655 6.24667 3.21655V3.21655Z" stroke="#4B4F58" stroke-width="1.5" stroke-linecap="round" stroke-linejoin="round"/>
<path d="M14.1242 6.31071C13.9692 6.31154 13.8434 6.43738 13.8434 6.59238C13.8434 6.74738 13.97 6.87321 14.125 6.87321C14.28 6.87321 14.4059 6.74738 14.4059 6.59238C14.4067 6.43654 14.28 6.31071 14.1242 6.31071" stroke="#4B4F58" stroke-width="1.5" stroke-linecap="round" stroke-linejoin="round"/>
<path d="M12.1213 8.59523C13.2929 9.76681 13.2929 11.6663 12.1213 12.8379C10.9497 14.0095 9.05026 14.0095 7.87868 12.8379C6.70711 11.6663 6.70711 9.76681 7.87868 8.59523C9.05026 7.42366 10.9497 7.42366 12.1213 8.59523" stroke="#4B4F58" stroke-width="1.5" stroke-linecap="round" stroke-linejoin="round"/>
</svg>
