<svg width="21" height="20" viewBox="0 0 21 20" fill="none" xmlns="http://www.w3.org/2000/svg">
    <path fill-rule="evenodd" clip-rule="evenodd"
        d="M6.74667 2.5H14.2542C16.3225 2.5 18 4.17667 18 6.24667V13.7542C18 15.8225 16.3233 17.5 14.2533 17.5H6.74667C4.6775 17.5 3 15.8233 3 13.7533V6.24667C3 4.1775 4.67667 2.5 6.74667 2.5V2.5Z"
        stroke="#4B4F58" stroke-width="1.5" stroke-linecap="round" stroke-linejoin="round" />
    <path
        d="M14.6242 5.59416C14.4692 5.59499 14.3434 5.72082 14.3434 5.87582C14.3434 6.03082 14.47 6.15666 14.625 6.15666C14.78 6.15666 14.9059 6.03082 14.9059 5.87582C14.9067 5.71999 14.78 5.59416 14.6242 5.59416"
        stroke="#4B4F58" stroke-width="1.5" stroke-linecap="round" stroke-linejoin="round" />
    <path
        d="M12.6213 7.87868C13.7929 9.05026 13.7929 10.9497 12.6213 12.1213C11.4497 13.2929 9.55026 13.2929 8.37868 12.1213C7.20711 10.9497 7.20711 9.05026 8.37868 7.87868C9.55026 6.70711 11.4497 6.70711 12.6213 7.87868"
        stroke="#4B4F58" stroke-width="1.5" stroke-linecap="round" stroke-linejoin="round" />
</svg>