<svg width="21" height="20" viewBox="0 0 21 20" fill="none" xmlns="http://www.w3.org/2000/svg">
    <path fill-rule="evenodd" clip-rule="evenodd"
        d="M6.75 2.5H14.2533C16.3225 2.5 18 4.1775 18 6.24667V13.7542C18 15.8225 16.3225 17.5 14.2533 17.5H6.74667C4.6775 17.5 3 15.8225 3 13.7533V6.25C3 4.17917 4.67917 2.5 6.75 2.5V2.5Z"
        stroke="#4B4F58" stroke-width="1.5" stroke-linecap="round" stroke-linejoin="round" />
    <path d="M7.26664 9.25V13.75" stroke="#4B4F58" stroke-width="1.5" stroke-linecap="round" stroke-linejoin="round" />
    <path
        d="M10.2659 13.75V11.125C10.2659 10.0892 11.105 9.25 12.1409 9.25V9.25C13.1767 9.25 14.0159 10.0892 14.0159 11.125V13.75"
        stroke="#4B4F58" stroke-width="1.5" stroke-linecap="round" stroke-linejoin="round" />
    <path
        d="M7.26502 6.53166C7.16169 6.53166 7.07752 6.61582 7.07835 6.71916C7.07835 6.82249 7.16252 6.90666 7.26585 6.90666C7.36919 6.90666 7.45335 6.82249 7.45335 6.71916C7.45335 6.61499 7.36918 6.53166 7.26502 6.53166"
        stroke="#4B4F58" stroke-width="1.5" stroke-linecap="round" stroke-linejoin="round" />
</svg>