<svg width="20" height="21" viewBox="0 0 20 21" fill="none" xmlns="http://www.w3.org/2000/svg">
<path fill-rule="evenodd" clip-rule="evenodd" d="M6.25 3.21655H13.7533C15.8225 3.21655 17.5 4.89405 17.5 6.96322V14.4707C17.5 16.5391 15.8225 18.2166 13.7533 18.2166H6.24667C4.1775 18.2166 2.5 16.5391 2.5 14.4699V6.96655C2.5 4.89572 4.17917 3.21655 6.25 3.21655V3.21655Z" stroke="#4B4F58" stroke-width="1.5" stroke-linecap="round" stroke-linejoin="round"/>
<path d="M6.76664 9.96655V14.4666" stroke="#4B4F58" stroke-width="1.5" stroke-linecap="round" stroke-linejoin="round"/>
<path d="M9.76587 14.4666V11.8416C9.76587 10.8057 10.605 9.96655 11.6409 9.96655V9.96655C12.6767 9.96655 13.5159 10.8057 13.5159 11.8416V14.4666" stroke="#4B4F58" stroke-width="1.5" stroke-linecap="round" stroke-linejoin="round"/>
<path d="M6.76502 7.24821C6.66169 7.24821 6.57752 7.33238 6.57835 7.43571C6.57835 7.53904 6.66252 7.62321 6.76585 7.62321C6.86919 7.62321 6.95335 7.53904 6.95335 7.43571C6.95335 7.33154 6.86918 7.24821 6.76502 7.24821" stroke="#4B4F58" stroke-width="1.5" stroke-linecap="round" stroke-linejoin="round"/>
</svg>
