<svg width="24" height="25" viewBox="0 0 24 25" fill="none" xmlns="http://www.w3.org/2000/svg">
<path d="M5.127 10.7616V10.5896C5.127 6.79355 8.204 3.71655 12 3.71655C15.796 3.71655 18.873 6.79355 18.873 10.5896V10.7616C18.873 14.2226 14.491 19.4326 12.725 21.3926C12.336 21.8246 11.664 21.8246 11.275 21.3926C9.509 19.4326 5.127 14.2226 5.127 10.7616Z" stroke="#3366CC" stroke-width="1.4468" stroke-linecap="round" stroke-linejoin="round"/>
<path d="M10 10.6715C10 11.7765 10.895 12.6715 12 12.6715C13.105 12.6715 14 11.7765 14 10.6715V10.6345C14 9.52952 13.105 8.63452 12 8.63452C10.895 8.63452 10 9.52952 10 10.6345" stroke="#3366CC" stroke-width="1.4468" stroke-linecap="round" stroke-linejoin="round"/>
</svg>
