<svg width="60" height="60" viewBox="0 0 60 60" fill="none" xmlns="http://www.w3.org/2000/svg">
<g filter="url(#filter0_d_1086_2413)">
<path d="M10 26C10 14.9543 18.9543 6 30 6C41.0457 6 50 14.9543 50 26C50 37.0457 41.0457 46 30 46C18.9543 46 10 37.0457 10 26Z" fill="white" shape-rendering="crispEdges"/>
<path d="M10.5 26C10.5 15.2304 19.2304 6.5 30 6.5C40.7696 6.5 49.5 15.2304 49.5 26C49.5 36.7696 40.7696 45.5 30 45.5C19.2304 45.5 10.5 36.7696 10.5 26Z" stroke="#4B4F58" shape-rendering="crispEdges"/>
<path d="M37 26H23" stroke="#4B4F58" stroke-width="1.5" stroke-linecap="round" stroke-linejoin="round"/>
<path d="M32 31L37 26" stroke="#4B4F58" stroke-width="1.5" stroke-linecap="round" stroke-linejoin="round"/>
<path d="M32 21L37 26" stroke="#4B4F58" stroke-width="1.5" stroke-linecap="round" stroke-linejoin="round"/>
</g>
<defs>
<filter id="filter0_d_1086_2413" x="0" y="0" width="60" height="60" filterUnits="userSpaceOnUse" color-interpolation-filters="sRGB">
<feFlood flood-opacity="0" result="BackgroundImageFix"/>
<feColorMatrix in="SourceAlpha" type="matrix" values="0 0 0 0 0 0 0 0 0 0 0 0 0 0 0 0 0 0 127 0" result="hardAlpha"/>
<feOffset dy="4"/>
<feGaussianBlur stdDeviation="5"/>
<feComposite in2="hardAlpha" operator="out"/>
<feColorMatrix type="matrix" values="0 0 0 0 0 0 0 0 0 0 0 0 0 0 0 0 0 0 0.15 0"/>
<feBlend mode="normal" in2="BackgroundImageFix" result="effect1_dropShadow_1086_2413"/>
<feBlend mode="normal" in="SourceGraphic" in2="effect1_dropShadow_1086_2413" result="shape"/>
</filter>
</defs>
</svg>
