<svg width="24" height="24" viewBox="0 0 24 24" fill="none" xmlns="http://www.w3.org/2000/svg">
    <path
        d="M12 11.25C9.74149 11.25 7.89338 9.40276 7.89338 7.14342H6.39338C6.39338 10.2314 8.91328 12.75 12 12.75V11.25ZM7.89338 7.14342C7.89338 4.87669 9.74883 3 12 3V1.5C8.90594 1.5 6.39338 4.06281 6.39338 7.14342H7.89338ZM12 3C14.2584 3 16.1065 4.84724 16.1065 7.10658H17.6065C17.6065 4.01859 15.0867 1.5 12 1.5V3ZM16.1065 7.10658C16.1065 9.37331 14.2511 11.25 12 11.25V12.75C15.094 12.75 17.6065 10.1872 17.6065 7.10658H16.1065ZM19.5833 21.0001H4.41665V22.5001H19.5833V21.0001ZM4.41665 21.0001C4.23503 21.0001 4.08331 20.8484 4.08331 20.6667H2.58331C2.58331 21.6768 3.4066 22.5001 4.41665 22.5001V21.0001ZM4.08331 20.6667V19.5834H2.58331V20.6667H4.08331ZM4.08331 19.5834C4.08331 17.6143 5.69753 16.0001 7.66665 16.0001V14.5001C4.8691 14.5001 2.58331 16.7859 2.58331 19.5834H4.08331ZM7.66665 16.0001H16.3333V14.5001H7.66665V16.0001ZM16.3333 16.0001C18.3024 16.0001 19.9166 17.6143 19.9166 19.5834H21.4166C21.4166 16.7859 19.1309 14.5001 16.3333 14.5001V16.0001ZM19.9166 19.5834V20.6667H21.4166V19.5834H19.9166ZM19.9166 20.6667C19.9166 20.8484 19.7649 21.0001 19.5833 21.0001V22.5001C20.5934 22.5001 21.4166 21.6768 21.4166 20.6667H19.9166Z"
        fill="white" />
</svg>