<svg width="24" height="25" viewBox="0 0 24 25" fill="none" xmlns="http://www.w3.org/2000/svg">
<path fill-rule="evenodd" clip-rule="evenodd" d="M7.5 3.71021H16.504C18.987 3.71021 21 5.7232 21 8.2062V17.2152C21 19.6972 18.987 21.7102 16.504 21.7102H7.496C5.013 21.7102 3 19.6972 3 17.2142V8.21021C3 5.72521 5.015 3.71021 7.5 3.71021V3.71021Z" stroke="white" stroke-width="1.5" stroke-linecap="round" stroke-linejoin="round"/>
<path d="M8.08201 12.6932C7.93101 12.3052 7.83301 11.8952 7.83301 11.4602C7.83301 9.3892 9.69901 7.71021 12 7.71021C14.301 7.71021 16.167 9.3892 16.167 11.4602C16.167 13.5312 14.488 15.2102 12.417 15.2102C11.592 15.2102 10.836 14.9362 10.217 14.4842" stroke="white" stroke-width="1.5" stroke-linecap="round" stroke-linejoin="round"/>
<path d="M10.98 11.0203L9.5 17.7103" stroke="white" stroke-width="1.5" stroke-linecap="round" stroke-linejoin="round"/>
</svg>
