<svg width="24" height="24" viewBox="0 0 24 24" fill="none" xmlns="http://www.w3.org/2000/svg">
    <g clip-path="url(#clip0_67_22678)">
        <path d="M9.40161 19.4017L11 21" stroke="#383C42" stroke-width="1.5" stroke-linecap="round"
            stroke-linejoin="round" />
        <path
            d="M6.75 20.5C8.82107 20.5 10.5 18.8211 10.5 16.75C10.5 14.6789 8.82107 13 6.75 13C4.67893 13 3 14.6789 3 16.75C3 18.8211 4.67893 20.5 6.75 20.5Z"
            stroke="#383C42" stroke-width="1.5" stroke-linecap="round" stroke-linejoin="round" />
        <path
            d="M3 11V8C3 6.67392 3.52678 5.40215 4.46447 4.46447C5.40215 3.52678 6.67392 3 8 3H16C17.3261 3 18.5979 3.52678 19.5355 4.46447C20.4732 5.40215 21 6.67392 21 8V16C21 17.3261 20.4732 18.5979 19.5355 19.5355C18.5979 20.4732 17.3261 21 16 21H14"
            stroke="#383C42" stroke-width="1.5" stroke-linecap="round" stroke-linejoin="round" />
        <path d="M13 8L16 11" stroke="#383C42" stroke-width="1.5" stroke-linecap="round" stroke-linejoin="round" />
        <path d="M16 8L13 11" stroke="#383C42" stroke-width="1.5" stroke-linecap="round" stroke-linejoin="round" />
    </g>
    <defs>
        <clipPath id="clip0_67_22678">
            <rect width="24" height="24" fill="white" />
        </clipPath>
    </defs>
</svg>