<svg width="23" height="24" viewBox="0 0 23 24" fill="none" xmlns="http://www.w3.org/2000/svg">
<path d="M18.7043 15.4186C17.3239 15.4186 16.093 16.0764 15.3057 17.093L8.71264 13.4103C8.86712 12.9668 8.95184 12.4884 8.95184 11.995C8.95184 11.4967 8.86712 11.0233 8.70765 10.5748L15.2957 6.89701C16.0781 7.9186 17.314 8.5814 18.6993 8.5814C21.0615 8.5814 22.99 6.65781 22.99 4.2907C22.99 1.92359 21.0665 0 18.6993 0C16.3322 0 14.4087 1.92359 14.4087 4.2907C14.4087 4.78904 14.4934 5.26744 14.6528 5.71096L8.06978 9.3887C7.28739 8.36213 6.05151 7.70432 4.66612 7.70432C2.304 7.70432 0.375427 9.62791 0.375427 11.995C0.375427 14.3621 2.304 16.2857 4.67111 16.2857C6.05649 16.2857 7.29237 15.6229 8.07975 14.5963L14.6678 18.2791C14.5083 18.7276 14.4186 19.211 14.4186 19.7093C14.4186 22.0714 16.3422 24 18.7093 24C21.0764 24 23 22.0764 23 19.7093C23 17.3422 21.0714 15.4186 18.7043 15.4186ZM18.7043 1.3505C20.3289 1.3505 21.6495 2.6711 21.6495 4.29568C21.6495 5.92027 20.3289 7.24086 18.7043 7.24086C17.0797 7.24086 15.7591 5.92027 15.7591 4.29568C15.7591 2.6711 17.0847 1.3505 18.7043 1.3505ZM4.67111 14.9402C3.04652 14.9402 1.72593 13.6196 1.72593 11.995C1.72593 10.3704 3.04652 9.04983 4.67111 9.04983C6.29569 9.04983 7.61629 10.3704 7.61629 11.995C7.61629 13.6196 6.29071 14.9402 4.67111 14.9402ZM18.7043 22.6495C17.0797 22.6495 15.7591 21.3289 15.7591 19.7043C15.7591 18.0797 17.0797 16.7591 18.7043 16.7591C20.3289 16.7591 21.6495 18.0797 21.6495 19.7043C21.6495 21.3289 20.3289 22.6495 18.7043 22.6495Z" fill="white"/>
</svg>
