<svg width="20" height="25" viewBox="0 0 20 25" fill="none" xmlns="http://www.w3.org/2000/svg">
<path d="M18.3686 5.95448H14.4359C15.621 4.79887 16.3582 3.18602 16.3582 1.40395C16.3582 0.904711 15.9535 0.5 15.4543 0.5C13.1409 0.5 11.1124 1.74203 9.99981 3.59409C8.88723 1.74203 6.85872 0.5 4.54538 0.5C4.04615 0.5 3.64143 0.904711 3.64143 1.40395C3.64143 3.18602 4.37869 4.79887 5.5638 5.95448H1.631C1.13176 5.95448 0.727051 6.35919 0.727051 6.85843V23.5961C0.727051 24.0953 1.13176 24.5001 1.631 24.5001H18.3686C18.8679 24.5001 19.2726 24.0953 19.2726 23.5961V6.85843C19.2726 6.35919 18.8679 5.95448 18.3686 5.95448ZM17.4647 14.3233H10.9038V7.76238H17.4647V14.3233ZM14.4354 2.42293C14.0467 4.11538 12.7112 5.4508 11.0187 5.8395C11.4075 4.147 12.7429 2.81158 14.4354 2.42293ZM8.98088 5.83945C7.28843 5.45075 5.95301 4.11533 5.56431 2.42288C7.25677 2.81158 8.59218 4.147 8.98088 5.83945ZM9.09586 7.76238V14.3233H2.53495V7.76238H9.09586ZM2.53495 16.1312H9.09586V22.6922H2.53495V16.1312ZM10.9038 22.6921V16.1312H17.4647V22.6922H10.9038V22.6921Z" fill="#3366CC"/>
</svg>
