<svg width="17" height="18" viewBox="0 0 17 18" fill="none" xmlns="http://www.w3.org/2000/svg">
    <path
        d="M10.0463 8.2703L13.2124 4.8335H12.0101L9.52509 7.53144L7.62195 4.8335H4.33331L7.66213 9.55291L4.33331 13.1668H5.53563L8.18371 10.2922L10.2113 13.1668H13.5L10.0463 8.2707V8.2703ZM6.02766 5.71749H7.17404L11.8052 12.2828H10.6589L6.02766 5.71749Z"
        fill="#4B4F58" />
    <path fill-rule="evenodd" clip-rule="evenodd"
        d="M4.75 1.5H12.2533C14.3225 1.5 16 3.1775 16 5.24667V12.7542C16 14.8225 14.3225 16.5 12.2533 16.5H4.74667C2.6775 16.5 1 14.8225 1 12.7533V5.25C1 3.17917 2.67917 1.5 4.75 1.5V1.5Z"
        stroke="#4B4F58" stroke-width="1.5" stroke-linecap="round" stroke-linejoin="round" />
</svg>