<svg width="18" height="17" viewBox="0 0 18 17" fill="none" xmlns="http://www.w3.org/2000/svg">
<path d="M10.5463 7.98685L13.7124 4.55005H12.5101L10.0251 7.248L8.12195 4.55005H4.83331L8.16213 9.26946L4.83331 12.8834H6.03563L8.68371 10.0087L10.7113 12.8834H14L10.5463 7.98725V7.98685ZM6.52766 5.43404H7.67404L12.3052 11.9994H11.1589L6.52766 5.43404Z" fill="#4B4F58"/>
<path fill-rule="evenodd" clip-rule="evenodd" d="M5.25 1.21655H12.7533C14.8225 1.21655 16.5 2.89405 16.5 4.96322V12.4707C16.5 14.5391 14.8225 16.2166 12.7533 16.2166H5.24667C3.1775 16.2166 1.5 14.5391 1.5 12.4699V4.96655C1.5 2.89572 3.17917 1.21655 5.25 1.21655V1.21655Z" stroke="#4B4F58" stroke-width="1.5" stroke-linecap="round" stroke-linejoin="round"/>
</svg>
