<svg width="24" height="25" viewBox="0 0 24 25" fill="none" xmlns="http://www.w3.org/2000/svg">
<path fill-rule="evenodd" clip-rule="evenodd" d="M21.583 7.08332C21.354 6.07932 20.676 5.28732 19.814 5.01532C18.255 4.52832 12 4.52832 12 4.52832C12 4.52832 5.748 4.52832 4.186 5.01532C3.327 5.28332 2.649 6.07532 2.417 7.08332C2 8.90532 2 12.7103 2 12.7103C2 12.7103 2 16.5153 2.417 18.3373C2.646 19.3413 3.324 20.1333 4.186 20.4053C5.748 20.8923 12 20.8923 12 20.8923C12 20.8923 18.255 20.8923 19.814 20.4053C20.673 20.1373 21.351 19.3453 21.583 18.3373C22 16.5153 22 12.7103 22 12.7103C22 12.7103 22 8.90532 21.583 7.08332Z" stroke="white" stroke-width="1.5" stroke-linecap="round" stroke-linejoin="round"/>
<path fill-rule="evenodd" clip-rule="evenodd" d="M10.002 15.7102L15.198 12.7102L10.002 9.71021V15.7102Z" stroke="white" stroke-width="1.5" stroke-linecap="round" stroke-linejoin="round"/>
</svg>
