<svg width="20" height="20" viewBox="0 0 20 20" fill="none" xmlns="http://www.w3.org/2000/svg">
<g clip-path="url(#clip0_1202_10580)">
<path d="M10.0001 17.5C11.841 17.5 13.3334 14.1421 13.3334 10C13.3334 5.85786 11.841 2.5 10.0001 2.5C8.15913 2.5 6.66675 5.85786 6.66675 10C6.66675 14.1421 8.15913 17.5 10.0001 17.5Z" stroke="white" stroke-width="1.5" stroke-linecap="round" stroke-linejoin="round"/>
<path d="M17.0834 7.5H2.91675" stroke="white" stroke-width="1.5" stroke-linecap="round" stroke-linejoin="round"/>
<path d="M10.8333 2.5H9.16667C5.48477 2.5 2.5 5.48477 2.5 9.16667V10.8333C2.5 14.5152 5.48477 17.5 9.16667 17.5H10.8333C14.5152 17.5 17.5 14.5152 17.5 10.8333V9.16667C17.5 5.48477 14.5152 2.5 10.8333 2.5Z" stroke="white" stroke-width="1.5" stroke-linecap="round" stroke-linejoin="round"/>
<path d="M17.0834 12.5H2.91675" stroke="white" stroke-width="1.5" stroke-linecap="round" stroke-linejoin="round"/>
</g>
<defs>
<clipPath id="clip0_1202_10580">
<rect width="20" height="20" fill="white"/>
</clipPath>
</defs>
</svg>
