<svg width="20" height="20" viewBox="0 0 20 20" fill="none" xmlns="http://www.w3.org/2000/svg">
<g clip-path="url(#clip0_1202_10590)">
<path d="M7.1377 7.01721L9.2611 2.94779C9.33157 2.81276 9.43769 2.69963 9.56794 2.62069C9.69819 2.54174 9.84758 2.5 9.99989 2.5C10.1522 2.5 10.3016 2.54174 10.4318 2.62069C10.5621 2.69963 10.6682 2.81276 10.7387 2.94779L12.8621 7.01721" stroke="white" stroke-width="1.5" stroke-linecap="round" stroke-linejoin="round"/>
<path d="M7.13769 7.01721L3.19572 7.68084C3.04552 7.70612 2.90512 7.77209 2.78979 7.87157C2.67445 7.97105 2.58858 8.10024 2.54152 8.2451C2.49445 8.38996 2.48799 8.54494 2.52282 8.69322C2.55766 8.84149 2.63247 8.97738 2.73912 9.08612L5.67246 12.0768" stroke="white" stroke-width="1.5" stroke-linecap="round" stroke-linejoin="round"/>
<path d="M12.8623 7.01721L16.8043 7.68084C16.9545 7.70612 17.0949 7.77209 17.2102 7.87157C17.3255 7.97105 17.4114 8.10024 17.4585 8.2451C17.5055 8.38996 17.512 8.54494 17.4772 8.69322C17.4423 8.84149 17.3675 8.97738 17.2609 9.08612L14.3275 12.0768" stroke="white" stroke-width="1.5" stroke-linecap="round" stroke-linejoin="round"/>
<path d="M5.67252 12.0768L5.00952 16.5426C4.98716 16.6933 5.00651 16.8472 5.06549 16.9876C5.12446 17.1281 5.22079 17.2497 5.34402 17.3392C5.46725 17.4287 5.61265 17.4827 5.76443 17.4954C5.91621 17.5081 6.06857 17.479 6.20494 17.4111L10 15.5236" stroke="white" stroke-width="1.5" stroke-linecap="round" stroke-linejoin="round"/>
<path d="M14.3275 12.0768L14.9905 16.5426C15.0129 16.6933 14.9935 16.8472 14.9345 16.9876C14.8756 17.1281 14.7792 17.2497 14.656 17.3392C14.5328 17.4287 14.3874 17.4827 14.2356 17.4954C14.0838 17.5081 13.9314 17.479 13.7951 17.4111L10 15.5236" stroke="white" stroke-width="1.5" stroke-linecap="round" stroke-linejoin="round"/>
</g>
<defs>
<clipPath id="clip0_1202_10590">
<rect width="20" height="20" fill="white"/>
</clipPath>
</defs>
</svg>
