<svg width="134" height="46" viewBox="0 0 134 46" fill="none" xmlns="http://www.w3.org/2000/svg">
<rect x="0.558333" y="1.22496" width="132.883" height="43.55" rx="6.14167" fill="black"/>
<rect x="0.558333" y="1.22496" width="132.883" height="43.55" rx="6.14167" stroke="#A6A6A6" stroke-width="1.11667"/>
<path d="M19.882 22.3988L9.03339 34.1732C9.03441 34.1753 9.03441 34.1784 9.03542 34.1805C9.36862 35.459 10.5098 36.3999 11.865 36.3999C12.4071 36.3999 12.9155 36.2499 13.3517 35.9873L13.3863 35.9664L25.5973 28.7611L19.882 22.3988Z" fill="#EA4335"/>
<path d="M30.857 20.3939L30.8468 20.3866L25.5748 17.2617L19.6354 22.6665L25.5962 28.76L30.8396 25.6664C31.7587 25.1579 32.3833 24.1669 32.3833 23.0249C32.3833 21.8892 31.7679 20.9035 30.857 20.3939Z" fill="#FBBC04"/>
<path d="M9.03321 11.8259C8.96799 12.0718 8.93335 12.3302 8.93335 12.597V33.4033C8.93335 33.6701 8.96799 33.9285 9.03422 34.1733L20.2548 22.7001L9.03321 11.8259Z" fill="#4285F4"/>
<path d="M19.9622 22.9999L25.5765 17.2596L13.3798 10.0282C12.9366 9.75627 12.419 9.59998 11.8657 9.59998C10.5105 9.59998 9.36723 10.543 9.03404 11.8225C9.03404 11.8236 9.03302 11.8246 9.03302 11.8257L19.9622 22.9999Z" fill="#34A853"/>
<path d="M48.6978 13.5762C48.6978 14.6928 48.3666 15.5824 47.704 16.245C46.9596 17.0341 45.9806 17.4287 44.7672 17.4287C43.6058 17.4287 42.6232 17.0267 41.8192 16.2227C41.0152 15.4187 40.6132 14.4286 40.6132 13.2523C40.6132 12.0761 41.0152 11.086 41.8192 10.282C42.6232 9.478 43.6058 9.076 44.7672 9.076C45.3553 9.076 45.9099 9.18022 46.431 9.38867C46.9521 9.59711 47.3802 9.89117 47.7152 10.2708L46.9782 11.0078C46.7325 10.7101 46.4124 10.4793 46.0178 10.3155C45.6307 10.1443 45.2138 10.0587 44.7672 10.0587C43.8962 10.0587 43.1592 10.3602 42.5562 10.9632C41.9606 11.5736 41.6628 12.3367 41.6628 13.2523C41.6628 14.168 41.9606 14.9311 42.5562 15.5415C43.1592 16.1445 43.8962 16.446 44.7672 16.446C45.5637 16.446 46.2263 16.2227 46.7548 15.776C47.2834 15.3293 47.5886 14.7152 47.6705 13.9335H44.7672V12.9732H48.642C48.6792 13.1816 48.6978 13.3826 48.6978 13.5762ZM54.6137 9.25467V10.2373H50.9734V12.7722H54.2564V13.7325H50.9734V16.2673H54.6137V17.25H49.9461V9.25467H54.6137ZM58.723 10.2373V17.25H57.6956V10.2373H55.4623V9.25467H60.9563V10.2373H58.723ZM65.5097 17.25H64.4824V9.25467H65.5097V17.25ZM69.846 10.2373V17.25H68.8187V10.2373H66.5854V9.25467H72.0794V10.2373H69.846ZM83.2151 13.2523C83.2151 14.436 82.8206 15.4261 82.0315 16.2227C81.2349 17.0267 80.2597 17.4287 79.1058 17.4287C77.9445 17.4287 76.9693 17.0267 76.1801 16.2227C75.391 15.4261 74.9965 14.436 74.9965 13.2523C74.9965 12.0687 75.391 11.0786 76.1801 10.282C76.9693 9.478 77.9445 9.076 79.1058 9.076C80.2671 9.076 81.2424 9.48172 82.0315 10.2932C82.8206 11.0897 83.2151 12.0761 83.2151 13.2523ZM76.0461 13.2523C76.0461 14.1754 76.3365 14.9385 76.9171 15.5415C77.5053 16.1445 78.2348 16.446 79.1058 16.446C79.9768 16.446 80.7026 16.1445 81.2833 15.5415C81.8714 14.9459 82.1655 14.1829 82.1655 13.2523C82.1655 12.3218 81.8714 11.5587 81.2833 10.9632C80.7026 10.3602 79.9768 10.0587 79.1058 10.0587C78.2348 10.0587 77.5053 10.3602 76.9171 10.9632C76.3365 11.5662 76.0461 12.3292 76.0461 13.2523ZM85.4548 17.25H84.4275V9.25467H85.6782L89.5642 15.4745H89.6088L89.5642 13.9335V9.25467H90.5915V17.25H89.5195L85.4548 10.7287H85.4102L85.4548 12.2697V17.25Z" fill="white"/>
<path d="M104.429 34.3408H106.247V22.0446H104.429V34.3408ZM120.811 26.4738L118.726 31.805H118.663L116.5 26.4738H114.54L117.785 33.9247L115.936 38.0696H117.832L122.833 26.4738H120.811ZM110.496 32.944C109.9 32.944 109.069 32.644 109.069 31.8994C109.069 30.9512 110.103 30.5873 110.997 30.5873C111.797 30.5873 112.174 30.7614 112.659 30.9984C112.518 32.1375 111.546 32.944 110.496 32.944ZM110.716 26.2053C109.399 26.2053 108.034 26.7905 107.471 28.0879L109.085 28.7676C109.43 28.0879 110.072 27.8656 110.747 27.8656C111.687 27.8656 112.644 28.4351 112.659 29.4482V29.5742C112.33 29.3843 111.625 29.1 110.762 29.1C109.022 29.1 107.25 30.065 107.25 31.8679C107.25 33.5135 108.677 34.5739 110.276 34.5739C111.499 34.5739 112.174 34.0201 112.597 33.3709H112.659V34.3201H114.415V29.6056C114.415 27.423 112.8 26.2053 110.716 26.2053ZM99.475 27.9709H96.8881V23.7561H99.475C100.835 23.7561 101.607 24.8921 101.607 25.863C101.607 26.8161 100.835 27.9709 99.475 27.9709ZM99.4282 22.0446H95.0702V34.3408H96.8881V29.6823H99.4282C101.444 29.6823 103.426 28.2089 103.426 25.863C103.426 23.517 101.444 22.0446 99.4282 22.0446ZM75.6635 32.946C74.407 32.946 73.3553 31.8847 73.3553 30.4269C73.3553 28.9535 74.407 27.8754 75.6635 27.8754C76.9043 27.8754 77.8771 28.9535 77.8771 30.4269C77.8771 31.8847 76.9043 32.946 75.6635 32.946ZM77.7523 27.1623H77.6889C77.2805 26.6715 76.4959 26.2279 75.5065 26.2279C73.4333 26.2279 71.5335 28.0653 71.5335 30.4269C71.5335 32.7719 73.4333 34.5945 75.5065 34.5945C76.4959 34.5945 77.2805 34.1509 77.6889 33.6434H77.7523V34.2463C77.7523 35.8467 76.9043 36.7024 75.5377 36.7024C74.4226 36.7024 73.7315 35.8939 73.4489 35.2122L71.863 35.8781C72.3182 36.9877 73.5278 38.35 75.5377 38.35C77.6733 38.35 79.4795 37.0821 79.4795 33.9926V26.4807H77.7523V27.1623ZM80.7359 34.3408H82.5577V22.0436H80.7359V34.3408ZM85.2421 30.2843C85.1953 28.6682 86.4829 27.844 87.4089 27.844C88.1321 27.844 88.7443 28.2079 88.948 28.7312L85.2421 30.2843ZM90.8955 28.8896C90.5504 27.9551 89.4977 26.2279 87.3465 26.2279C85.2109 26.2279 83.4369 27.9227 83.4369 30.4112C83.4369 32.7561 85.1953 34.5945 87.5502 34.5945C89.451 34.5945 90.5504 33.4221 91.0056 32.7404L89.5923 31.7893C89.1215 32.4866 88.4772 32.946 87.5502 32.946C86.6242 32.946 85.9644 32.5181 85.5403 31.6791L91.0836 29.3646L90.8955 28.8896ZM46.7326 27.5115V29.286H50.9405C50.8148 30.2843 50.4853 31.0132 49.9833 31.5197C49.3702 32.1384 48.4121 32.8201 46.7326 32.8201C44.1408 32.8201 42.1153 30.7122 42.1153 28.0977C42.1153 25.4823 44.1408 23.3754 46.7326 23.3754C48.1304 23.3754 49.1509 23.9302 49.9044 24.6433L51.1452 23.3911C50.0925 22.377 48.6957 21.6 46.7326 21.6C43.1836 21.6 40.2 24.5164 40.2 28.0977C40.2 31.6791 43.1836 34.5945 46.7326 34.5945C48.648 34.5945 50.0925 33.9601 51.2232 32.7719C52.386 31.5994 52.7467 29.9519 52.7467 28.62C52.7467 28.2079 52.7155 27.8282 52.6521 27.5115H46.7326ZM57.5316 32.946C56.2752 32.946 55.1913 31.9004 55.1913 30.4112C55.1913 28.9053 56.2752 27.8754 57.5316 27.8754C58.7871 27.8754 59.8709 28.9053 59.8709 30.4112C59.8709 31.9004 58.7871 32.946 57.5316 32.946ZM57.5316 26.2279C55.2381 26.2279 53.3695 27.9866 53.3695 30.4112C53.3695 32.8201 55.2381 34.5945 57.5316 34.5945C59.8242 34.5945 61.6927 32.8201 61.6927 30.4112C61.6927 27.9866 59.8242 26.2279 57.5316 26.2279ZM66.6092 32.946C65.3528 32.946 64.2689 31.9004 64.2689 30.4112C64.2689 28.9053 65.3528 27.8754 66.6092 27.8754C67.8657 27.8754 68.9486 28.9053 68.9486 30.4112C68.9486 31.9004 67.8657 32.946 66.6092 32.946ZM66.6092 26.2279C64.3167 26.2279 62.4481 27.9866 62.4481 30.4112C62.4481 32.8201 64.3167 34.5945 66.6092 34.5945C68.9018 34.5945 70.7703 32.8201 70.7703 30.4112C70.7703 27.9866 68.9018 26.2279 66.6092 26.2279Z" fill="white"/>
</svg>
