<svg width="24" height="24" viewBox="0 0 24 24" fill="none" xmlns="http://www.w3.org/2000/svg">
<path fill-rule="evenodd" clip-rule="evenodd" d="M7.496 3.00012H16.505C18.987 3.00012 21 5.01212 21 7.49612V16.5051C21 18.9871 18.988 21.0001 16.504 21.0001H7.496C5.013 21.0001 3 18.9881 3 16.5041V7.49612C3 5.01312 5.012 3.00012 7.496 3.00012V3.00012Z" stroke="#9ba0aa" stroke-width="1.5" stroke-linecap="round" stroke-linejoin="round"/>
<path d="M16.949 6.71316C16.763 6.71416 16.612 6.86516 16.612 7.05116C16.612 7.23716 16.764 7.38816 16.95 7.38816C17.136 7.38816 17.287 7.23716 17.287 7.05116C17.288 6.86416 17.136 6.71316 16.949 6.71316" stroke="#9ba0aa" stroke-width="1.5" stroke-linecap="round" stroke-linejoin="round"/>
<path d="M14.5456 9.45456C15.9515 10.8605 15.9515 13.1398 14.5456 14.5457C13.1397 15.9516 10.8603 15.9516 9.45444 14.5457C8.04855 13.1398 8.04855 10.8605 9.45444 9.45456C10.8603 8.04867 13.1397 8.04867 14.5456 9.45456" stroke="#9ba0aa" stroke-width="1.5" stroke-linecap="round" stroke-linejoin="round"/>
</svg>
