<svg width="24" height="25" viewBox="0 0 24 25" fill="none" xmlns="http://www.w3.org/2000/svg">
<path fill-rule="evenodd" clip-rule="evenodd" d="M7.496 3.71021H16.505C18.987 3.71021 21 5.7222 21 8.2062V17.2152C21 19.6972 18.988 21.7102 16.504 21.7102H7.496C5.013 21.7102 3 19.6982 3 17.2142V8.2062C3 5.7232 5.012 3.71021 7.496 3.71021V3.71021Z" stroke="white" stroke-width="1.5" stroke-linecap="round" stroke-linejoin="round"/>
<path d="M16.949 7.42324C16.763 7.42424 16.612 7.57524 16.612 7.76124C16.612 7.94724 16.764 8.09824 16.95 8.09824C17.136 8.09824 17.287 7.94724 17.287 7.76124C17.288 7.57424 17.136 7.42324 16.949 7.42324" stroke="white" stroke-width="1.5" stroke-linecap="round" stroke-linejoin="round"/>
<path d="M14.5455 10.1645C15.9514 11.5704 15.9514 13.8498 14.5455 15.2557C13.1396 16.6616 10.8602 16.6616 9.45432 15.2557C8.04843 13.8498 8.04843 11.5704 9.45432 10.1645C10.8602 8.75863 13.1396 8.75863 14.5455 10.1645" stroke="white" stroke-width="1.5" stroke-linecap="round" stroke-linejoin="round"/>
</svg>
