<svg width="24" height="24" viewBox="0 0 24 24" fill="none" xmlns="http://www.w3.org/2000/svg">
    <path fill-rule="evenodd" clip-rule="evenodd"
        d="M7.5 3.00012H16.504C18.987 3.00012 21 5.01312 21 7.49612V16.5051C21 18.9871 18.987 21.0001 16.504 21.0001H7.496C5.013 21.0001 3 18.9871 3 16.5041V7.50012C3 5.01512 5.015 3.00012 7.5 3.00012V3.00012Z"
        stroke="" stroke-width="1.5" stroke-linecap="round" stroke-linejoin="round" />
    <path d="M8.12 11.1001V16.5001" stroke="" stroke-width="1.5" stroke-linecap="round" stroke-linejoin="round" />
    <path
        d="M11.719 16.5001V13.3501C11.719 12.1071 12.726 11.1001 13.969 11.1001V11.1001C15.212 11.1001 16.219 12.1071 16.219 13.3501V16.5001"
        stroke="" stroke-width="1.5" stroke-linecap="round" stroke-linejoin="round" />
    <path
        d="M8.11802 7.83811C7.99402 7.83811 7.89302 7.93911 7.89402 8.06311C7.89402 8.18711 7.99502 8.28811 8.11902 8.28811C8.24302 8.28811 8.34402 8.18711 8.34402 8.06311C8.34402 7.93811 8.24302 7.83811 8.11802 7.83811"
        stroke="" stroke-width="1.5" stroke-linecap="round" stroke-linejoin="round" />
</svg>