<svg width="24" height="25" viewBox="0 0 24 25" fill="none" xmlns="http://www.w3.org/2000/svg">
<path fill-rule="evenodd" clip-rule="evenodd" d="M7.5 3.71021H16.504C18.987 3.71021 21 5.7232 21 8.2062V17.2152C21 19.6972 18.987 21.7102 16.504 21.7102H7.496C5.013 21.7102 3 19.6972 3 17.2142V8.21021C3 5.72521 5.015 3.71021 7.5 3.71021V3.71021Z" stroke="white" stroke-width="1.5" stroke-linecap="round" stroke-linejoin="round"/>
<path d="M8.12012 11.8103V17.2103" stroke="white" stroke-width="1.5" stroke-linecap="round" stroke-linejoin="round"/>
<path d="M11.719 17.2103V14.0603C11.719 12.8173 12.726 11.8103 13.969 11.8103V11.8103C15.212 11.8103 16.219 12.8173 16.219 14.0603V17.2103" stroke="white" stroke-width="1.5" stroke-linecap="round" stroke-linejoin="round"/>
<path d="M8.1179 8.54819C7.9939 8.54819 7.8929 8.64919 7.8939 8.77319C7.8939 8.89719 7.9949 8.99819 8.1189 8.99819C8.2429 8.99819 8.3439 8.89719 8.3439 8.77319C8.3439 8.64819 8.2429 8.54819 8.1179 8.54819" stroke="white" stroke-width="1.5" stroke-linecap="round" stroke-linejoin="round"/>
</svg>
