<svg width="24" height="24" viewBox="0 0 24 24" fill="none" xmlns="http://www.w3.org/2000/svg">
    <path fill-rule="evenodd" clip-rule="evenodd"
        d="M7.5 3.00012H16.504C18.987 3.00012 21 5.01312 21 7.49612V16.5051C21 18.9871 18.987 21.0001 16.504 21.0001H7.496C5.013 21.0001 3 18.9871 3 16.5041V7.50012C3 5.01512 5.015 3.00012 7.5 3.00012V3.00012Z"
        stroke="" stroke-width="1.5" stroke-linecap="round" stroke-linejoin="round" />
    <path
        d="M8.08201 11.9831C7.93101 11.5951 7.83301 11.1851 7.83301 10.7501C7.83301 8.67912 9.69901 7.00012 12 7.00012C14.301 7.00012 16.167 8.67912 16.167 10.7501C16.167 12.8211 14.488 14.5001 12.417 14.5001C11.592 14.5001 10.836 14.2261 10.217 13.7741"
        stroke="" stroke-width="1.5" stroke-linecap="round" stroke-linejoin="round" />
    <path d="M10.98 10.3102L9.5 17.0002" stroke="" stroke-width="1.5" stroke-linecap="round" stroke-linejoin="round" />
</svg>