<svg width="24" height="25" viewBox="0 0 24 25" fill="none" xmlns="http://www.w3.org/2000/svg">
<path d="M13.8556 11.8346L17.6549 7.71045H16.2121L13.2301 10.948L10.9464 7.71045H7L10.9946 13.3737L7 17.7104H8.44278L11.6205 14.2609L14.0536 17.7104H18L13.8556 11.8351V11.8346ZM9.03322 8.77124H10.4089L15.9663 16.6497H14.5907L9.03322 8.77124Z" fill="white"/>
<path fill-rule="evenodd" clip-rule="evenodd" d="M7.5 3.71021H16.504C18.987 3.71021 21 5.7232 21 8.2062V17.2152C21 19.6972 18.987 21.7102 16.504 21.7102H7.496C5.013 21.7102 3 19.6972 3 17.2142V8.21021C3 5.72521 5.015 3.71021 7.5 3.71021V3.71021Z" stroke="white" stroke-width="1.5" stroke-linecap="round" stroke-linejoin="round"/>
</svg>
