<svg xmlns="http://www.w3.org/2000/svg" width="20" height="20" viewBox="0 0 20 20" fill="none">
    <path
        d="M11.8556 9.12465L15.6549 5.00049H14.2121L11.2301 8.23803L8.94637 5.00049H5L8.99459 10.6638L5 15.0005H6.44278L9.62048 11.5509L12.0536 15.0005H16L11.8556 9.12513V9.12465ZM7.03322 6.06128 13.9397H12.5907L7.03322 6.06128Z"
        fill="" />
    <path fill-rule="evenodd" clip-rule="evenodd"
        d="M5.5 1.00024H14.504C16.987 1.00024 19 3.01324 19 5.49624V14.5052C19 16.9872 16.987 19.0002 14.504 19.0002H5.496C3.013 19.0002 1 16.9872 1 14.5042V5.50024C1 3.01524 3.015 1.00024 5.5 1.00024V1.00024Z"
        stroke="" stroke-width="1.5" stroke-linecap="round" stroke-linejoin="round" />
</svg>