<svg width="24" height="24" viewBox="0 0 24 24" fill="none" xmlns="http://www.w3.org/2000/svg">
<path d="M13.8556 11.1244L17.6549 7.00024H16.2121L13.2301 10.2378L10.9464 7.00024H7L10.9946 12.6635L7 17.0002H8.44278L11.6205 13.5506L14.0536 17.0002H18L13.8556 11.1249V11.1244ZM9.03322 8.06103H10.4089L15.9663 15.9395H14.5907L9.03322 8.06103Z" fill="#9ba0aa"/>
<path fill-rule="evenodd" clip-rule="evenodd" d="M7.5 3.00012H16.504C18.987 3.00012 21 5.01312 21 7.49612V16.5051C21 18.9871 18.987 21.0001 16.504 21.0001H7.496C5.013 21.0001 3 18.9871 3 16.5041V7.50012C3 5.01512 5.015 3.00012 7.5 3.00012V3.00012Z" stroke="#9ba0aa" stroke-width="1.5" stroke-linecap="round" stroke-linejoin="round"/>
</svg>
